HIERARCHY
ROOT Pelvis
{
	OFFSET 0.000000 0.000000 0.000000
	CHANNELS 6 Xposition Yposition Zposition Zrotation Yrotation Xrotation 
	JOINT Left_hip
	{
		OFFSET 0.070241 -0.085575 -0.010474
		CHANNELS 3 Zrotation Yrotation Xrotation
		JOINT Left_knee
		{
			OFFSET 0.032125 -0.356873 -0.000555
			CHANNELS 3 Zrotation Yrotation Xrotation
			JOINT Left_ankle
			{
				OFFSET -0.010961 -0.370212 -0.042278
				CHANNELS 3 Zrotation Yrotation Xrotation
				JOINT Left_foot
				{
					OFFSET 0.023322 -0.052281 0.110104
					CHANNELS 3 Zrotation Yrotation Xrotation
					End Site
					{
						OFFSET 0.000000 0.000000 0.000000
					}
				}
			}
		}
	}
	JOINT Right_hip
	{
		OFFSET -0.068518 -0.084320 -0.007402
		CHANNELS 3 Zrotation Yrotation Xrotation
		JOINT Right_knee
		{
			OFFSET -0.037345 -0.364815 -0.003619
			CHANNELS 3 Zrotation Yrotation Xrotation
			JOINT Right_ankle
			{
				OFFSET 0.013394 -0.370006 -0.039954
				CHANNELS 3 Zrotation Yrotation Xrotation
				JOINT Right_foot
				{
					OFFSET -0.019600 -0.045455 0.113223
					CHANNELS 3 Zrotation Yrotation Xrotation
					End Site
					{
						OFFSET 0.000000 0.000000 0.000000
					}
				}
			}
		}
	}
	JOINT Spine1
	{
		OFFSET -0.002404 0.098129 -0.018169
		CHANNELS 3 Zrotation Yrotation Xrotation
		JOINT Spine2
		{
			OFFSET 0.003989 0.127209 -0.001742
			CHANNELS 3 Zrotation Yrotation Xrotation
			JOINT Spine3
			{
				OFFSET 0.001758 0.046641 0.023475
				CHANNELS 3 Zrotation Yrotation Xrotation
				JOINT Neck
				{
					OFFSET -0.003759 0.194901 -0.039982
					CHANNELS 3 Zrotation Yrotation Xrotation
					JOINT Head
					{
						OFFSET 0.003999 0.063756 0.047665
						CHANNELS 3 Zrotation Yrotation Xrotation
						End Site
						{
							OFFSET 0.000000 0.000000 0.000000
						}
					}
				}
				JOINT Left_collar
				{
					OFFSET 0.071816 0.109048 -0.028973
					CHANNELS 3 Zrotation Yrotation Xrotation
					JOINT Left_shoulder
					{
						OFFSET 0.084027 0.032269 -0.006525
						CHANNELS 3 Zrotation Yrotation Xrotation
						JOINT Left_elbow
						{
							OFFSET 0.243854 -0.013992 -0.025905
							CHANNELS 3 Zrotation Yrotation Xrotation
							JOINT Left_wrist
							{
								OFFSET 0.232156 0.008196 -0.000339
								CHANNELS 3 Zrotation Yrotation Xrotation
								JOINT Left_palm
								{
									OFFSET 0.075377 -0.009461 -0.012494
									CHANNELS 3 Zrotation Yrotation Xrotation
									End Site
									{
										OFFSET 0.000000 0.000000 0.000000
									}
								}
							}
						}
					}
				}
				JOINT Right_collar
				{
					OFFSET -0.073768 0.107001 -0.033755
					CHANNELS 3 Zrotation Yrotation Xrotation
					JOINT Right_shoulder
					{
						OFFSET -0.086837 0.032868 -0.009431
						CHANNELS 3 Zrotation Yrotation Xrotation
						JOINT Right_elbow
						{
							OFFSET -0.236446 -0.012544 -0.018747
							CHANNELS 3 Zrotation Yrotation Xrotation
							JOINT Right_wrist
							{
								OFFSET -0.236110 0.006124 -0.004327
								CHANNELS 3 Zrotation Yrotation Xrotation
								JOINT Right_palm
								{
									OFFSET -0.074800 -0.006875 -0.009610
									CHANNELS 3 Zrotation Yrotation Xrotation
									End Site
									{
										OFFSET 0.000000 0.000000 0.000000
									}
								}
							}
						}
					}
				}
			}
		}
	}
}
MOTION
Frames: 8
Frame Time: 0.100000
0.000000 0.000000 0.000000 178.640865 19.576141 -8.378006 -1.829774 4.502636 0.517170 0.432272 -5.664636 -4.863541 -3.429887 25.072016 -4.013270 10.356475 -4.272089 1.675672 2.591624 -4.509136 3.196328 -1.602892 6.198624 -3.633502 -3.339293 -22.474964 -4.524822 8.889072 6.034232 6.839460 -1.802574 2.926761 -2.383885 0.619394 -2.411853 -2.563295 -0.395676 1.637863 -3.377885 -1.668531 -3.843502 1.388048 3.460461 -3.357831 -2.523562 -6.283855 5.973862 -10.530081 5.927706 -15.461577 -14.717280 2.140182 11.298086 -11.500916 -2.432777 -3.842319 34.505888 0.551282 -6.513063 -1.952010 10.325353 -1.044517 -7.438853 -2.943707 10.100151 -16.676336 -8.393052 -9.620815 -9.797054 -1.659607 2.859715 30.848799 5.867485 7.909684 -1.937450 
0.002033 -0.000033 -0.001625 178.789202 19.268293 -8.544281 -1.838947 4.631327 0.592822 0.449746 -5.489070 -4.801854 -3.406763 25.181011 -3.724591 10.382834 -4.332833 1.427672 2.524760 -4.481094 3.077793 -1.511175 6.334640 -3.281907 -3.160245 -22.425203 -4.510504 8.632156 6.233761 6.826608 -1.648151 2.992020 -2.161270 0.545821 -2.304869 -2.532451 -0.446688 1.768295 -3.182377 -1.880887 -3.683170 1.812370 3.308283 -3.217688 -2.043591 -6.200920 6.030778 -10.576442 5.840335 -15.371332 -14.731067 2.110702 11.001475 -11.554984 -2.278776 -3.898926 34.185633 0.404550 -6.566888 -2.002283 10.282642 -0.942784 -7.347687 -3.018117 10.150764 -16.778899 -8.333839 -9.438022 -9.941973 -1.720549 2.918399 30.775792 5.937921 7.895636 -2.079053 
0.004254 -0.000343 -0.006603 178.747115 18.988729 -8.587623 -1.736180 4.694647 -0.046511 0.411620 -5.246982 -4.245290 -3.441389 25.295085 -3.142004 10.544839 -4.514700 0.775236 2.455400 -4.498912 2.049726 -1.142059 6.397318 -2.025742 -2.657157 -22.340369 -4.321343 7.774589 6.739499 6.526257 -1.352481 3.004592 -1.546727 0.491013 -2.197159 -2.879231 -0.454386 1.896393 -2.874582 -2.060895 -3.934836 1.868109 3.340059 -3.110799 -0.963165 -6.238669 6.024561 -10.577858 5.477335 -15.441407 -14.804499 2.118845 10.602398 -11.654408 -1.966230 -3.915462 33.760418 0.144444 -6.746025 -1.950353 10.281026 -0.786826 -7.197896 -2.912681 10.291644 -16.893868 -8.157181 -9.456710 -9.887758 -1.903442 2.945542 30.937453 5.971193 8.018766 -2.236312 
0.005842 0.000442 -0.015552 178.688210 18.588784 -8.857012 -1.718526 4.816229 -0.484894 0.410364 -4.949152 -4.045835 -3.530567 25.410265 -2.495813 10.858159 -4.723376 0.064247 2.389308 -4.543473 1.150075 -0.926375 6.500524 -1.042595 -2.069742 -22.287267 -4.144962 6.788274 7.449180 6.353263 -1.152611 3.086355 -0.843588 0.409760 -2.115969 -2.863847 -0.506273 2.083235 -2.484671 -2.131395 -4.165433 2.687204 3.552994 -2.863374 0.989401 -6.446918 6.001488 -10.549828 5.236481 -15.966380 -15.036319 2.532447 8.746831 -12.042198 -1.288895 -4.116004 33.051114 -0.553754 -7.055899 -2.079401 10.440733 -0.587088 -6.965307 -2.729575 10.734639 -17.100660 -8.072744 -9.175734 -10.515741 -2.173868 2.991713 30.607402 6.126822 8.269042 -2.399949 
0.007192 0.003353 -0.029728 178.514844 18.451243 -9.442698 -1.805942 4.797867 -0.920226 0.418077 -4.874372 -3.925056 -3.708819 25.585143 -2.075509 11.429122 -5.011063 -0.721861 2.478680 -4.367753 -0.617934 -0.778109 6.375027 1.550395 -1.672334 -22.633401 -4.735839 5.989915 8.533981 6.524006 -1.060799 3.003193 0.219728 0.262873 -2.024430 -2.486194 -0.682430 2.238842 -2.045958 -2.233390 -4.929239 4.121696 3.894897 -2.815807 4.054953 -7.214635 6.171605 -10.452259 4.831457 -17.074309 -14.851711 3.736867 3.760611 -12.437399 1.764195 -5.758055 31.326362 -1.810065 -7.411834 -1.919711 11.067276 -0.664339 -6.645620 -2.066847 11.060073 -16.776274 -7.998575 -7.750761 -11.611864 -4.171460 4.207708 28.772219 6.482687 8.588434 -1.908585 
0.010661 0.008186 -0.048532 178.536083 18.640449 -10.471338 -1.983044 4.546097 -1.158209 0.100528 -5.416904 -3.681335 -3.778297 25.956831 -1.752512 12.135231 -5.360595 -1.560001 2.407587 -4.186314 -3.662921 -0.575703 5.696465 7.062612 -1.064660 -23.058558 -5.905387 4.476483 9.632553 5.645160 -1.531664 2.467087 2.583822 -0.121276 -1.894582 -2.201114 -0.946391 2.130068 -0.942354 -2.322400 -6.809890 4.507551 4.543025 -3.647910 5.688482 -7.924209 6.715106 -10.185582 1.950046 -18.990544 -13.829265 7.240911 -1.367164 -12.182495 14.084200 -10.792894 28.574254 -1.669793 -6.630358 0.529686 11.749585 -1.344502 -6.506710 1.861554 11.664169 -15.236147 -8.586907 -5.098070 -12.133217 -13.160151 8.585672 24.745082 5.863925 8.024752 0.965993 
0.018538 0.013689 -0.071326 178.126316 19.018423 -10.886048 -1.359164 3.776849 -2.999773 -0.401323 -4.244907 -2.698233 -3.128502 24.629102 -0.653265 11.503451 -4.247416 -3.097890 2.408746 -3.640412 -7.453615 0.071838 3.587292 11.810355 -0.630735 -22.258809 -5.823432 2.978785 10.601260 5.572322 -2.411083 2.038871 5.770764 0.057293 -1.562431 -2.047524 -1.052694 1.729599 0.125524 -1.167645 -7.744091 2.581387 4.312750 -4.902456 6.539363 -9.622340 9.847045 -9.305811 -9.073510 -20.671772 -8.353318 15.249298 -16.134949 -19.076565 28.589870 -12.554528 11.802103 -4.352929 -5.379633 2.575711 13.837386 -4.201738 -5.892189 13.149827 11.588163 -9.415925 -13.726329 4.214163 -17.008304 -27.689432 10.284275 9.319865 7.410075 7.308796 4.159814 
0.028976 0.017780 -0.092375 176.688497 17.878738 -10.371594 0.813325 4.282791 -5.152538 -0.444161 -1.152893 -3.573553 -2.007673 21.093182 2.122810 9.366621 -0.973819 -5.559744 3.283615 -1.460772 -10.337279 0.935527 3.341514 13.364534 0.576302 -18.159813 -6.486708 1.140385 9.897106 7.346813 -2.502118 1.871753 6.873033 1.188360 -1.299017 0.194930 -0.847757 1.310139 -1.086322 0.347338 -7.047807 1.304299 3.370330 -6.899994 7.212352 -13.454223 11.842667 -7.329021 -25.511849 -17.072127 1.236418 18.731294 -27.507736 -20.896672 21.958499 -10.788283 1.161371 -8.553282 -5.847856 -0.774612 18.795483 -4.922584 -3.628865 27.277753 10.615061 -1.474145 -19.556843 12.779986 -20.423072 -26.823262 8.029931 0.252346 10.405123 6.840559 3.252227 
